<?xml version="1.0" standalone="no"?><!DOCTYPE svg PUBLIC "-//W3C//DTD SVG 1.1//EN" "http://www.w3.org/Graphics/SVG/1.1/DTD/svg11.dtd"><svg class="icon" width="200px" height="200.00px" viewBox="0 0 1024 1024" version="1.1" xmlns="http://www.w3.org/2000/svg"><path fill="#d81e06" d="M512.000512 76.893274c-240.302995 0-435.106726 194.803731-435.106726 435.106726 0 240.301971 194.803731 435.105702 435.106726 435.105702 240.300948 0 435.104679-194.803731 435.104679-435.105702 0-240.302995-194.803731-435.106726-435.104679-435.106726z m-23.366174 233.927797h46.730301c5.185093 0 9.230222 4.178159 9.041933 9.334599L534.003642 601.727581c-0.092098 2.51324-2.261507 4.641717-4.843309 4.641717h-34.32169c-2.562359 0-4.747117-2.078335-4.842285-4.641717l-10.40293-281.571911c-0.189312-5.15644 3.853771-9.334599 9.04091-9.334599z m23.36515 402.356834c-18.088984 0-32.749892-14.661931-32.749891-32.749891s14.660908-32.749892 32.749891-32.749892 32.749892 14.661931 32.749892 32.749892-14.660908 32.749892-32.749892 32.749891z"  /></svg>