<?xml version="1.0" standalone="no"?><!DOCTYPE svg PUBLIC "-//W3C//DTD SVG 1.1//EN" "http://www.w3.org/Graphics/SVG/1.1/DTD/svg11.dtd"><svg class="icon" width="200px" height="200.00px" viewBox="0 0 1024 1024" version="1.1" xmlns="http://www.w3.org/2000/svg"><path fill="#d81e06" d="M689.65376 537.088l183.27552 183.27552c50.60608 50.60608 50.60608 132.66944 0 183.27552-50.60608 50.60608-132.66944 50.60608-183.27552 0L506.37824 720.37376 323.10272 903.64928c-50.60608 50.60608-132.66944 50.60608-183.27552 0-50.60608-50.61632-50.60608-132.67968 0-183.27552L323.10272 537.088 139.81696 353.81248c-50.60608-50.60608-50.60608-132.66944 0-183.27552s132.66944-50.60608 183.27552 0l183.27552 183.27552 183.27552-183.27552c50.60608-50.60608 132.66944-50.60608 183.27552 0s50.60608 132.66944 0 183.27552L689.65376 537.088zM735.46752 857.82528c25.30304 25.2928 66.33472 25.2928 91.63776 0 25.30304-25.31328 25.30304-66.33472 0-91.648L598.00576 537.088l229.09952-229.09952c25.30304-25.2928 25.30304-66.32448 0-91.62752-25.30304-25.30304-66.33472-25.30304-91.63776 0L506.37824 445.45024 277.27872 216.36096c-25.30304-25.30304-66.33472-25.30304-91.63776 0-25.30304 25.31328-25.30304 66.33472 0 91.62752L414.73024 537.088 185.64096 766.18752c-25.30304 25.31328-25.30304 66.33472 0 91.648 25.30304 25.2928 66.33472 25.2928 91.63776 0l229.09952-229.09952L735.46752 857.82528z" /></svg>